<?xml version="1.0" standalone="no"?>
<!DOCTYPE svg PUBLIC "-//W3C//DTD SVG 1.1//EN" "http://www.w3.org/Graphics/SVG/1.1/DTD/svg11.dtd" >
<svg xmlns="http://www.w3.org/2000/svg">
<metadata>
This is a custom SVG webfont generated by Font Squirrel.
Copyright   : Copyright c Phanlop Thongsuk 19992001 All rights reserved
Designer    : Phanlop Thongsuk email pslsmartkscthcom
</metadata>
<defs>
<font id="KittithadaRoman55FRegular" horiz-adv-x="0" >
<font-face units-per-em="2048" ascent="1638" descent="-410" />
<missing-glyph horiz-adv-x="512" />
<glyph />
<glyph unicode=" "  horiz-adv-x="512" />
<glyph unicode="&#x09;" horiz-adv-x="512" />
<glyph unicode="&#xa0;" horiz-adv-x="512" />
<glyph unicode="!" horiz-adv-x="350" d="M100 0v150h150v-150h-150zM111 668v297h129v-297l-35 -420h-60z" />
<glyph unicode="&#x22;" horiz-adv-x="575" d="M147 616v349h93v-349h-93zM336 616v349h92v-349h-92z" />
<glyph unicode="#" horiz-adv-x="751" d="M45 279v92h145l29 202h-137v93h149l39 276h95l-41 -276h168l38 276h95l-39 -276h121v-93h-134l-28 -202h123v-92h-138l-38 -279h-93l39 279h-168l-39 -279h-94l39 279h-131zM285 371h166l28 202h-168z" />
<glyph unicode="$" horiz-adv-x="751" d="M33 295h117q0 -88 52 -142.5t138 -66.5v356q-78 20 -130 43t-81 45q-68 57 -68 175q0 123 80 202.5t199 79.5v90h74v-90q213 -27 266 -268h-115q-29 133 -151 158v-334l82 -21q76 -20 131 -69q82 -74 82 -183q0 -135 -83 -209.5t-212 -74.5v-111h-74v111q-135 12 -215 90 t-92 219zM184 717q0 -66 43 -103q16 -14 44 -27.5t69 -23.5v318q-70 -8 -113 -49t-43 -115zM414 86q80 0 127 43t47 129q0 70 -49 111q-37 29 -125 55v-338z" />
<glyph unicode="%" horiz-adv-x="1351" d="M125 684q0 129 45 193q55 82 174 81q117 0 170 -79q45 -63 45 -191q0 -115 -49 -188q-59 -84 -166 -84q-113 0 -170 80q-49 69 -49 188zM225 686q0 -80 19 -125q27 -70 96 -69q70 0 98 65q20 39 21 131q0 80 -19 127q-27 70 -96 70q-68 0 -93.5 -59.5t-25.5 -139.5z M254 -23l727 1000h115l-725 -1000h-117zM793 252q0 127 45 190q55 84 174 84q117 0 170 -80q45 -63 45 -190q0 -115 -49 -188q-57 -76 -166 -76q-117 0 -168 68.5t-51 191.5zM893 254q0 -82 18 -127q27 -70 97 -70t98 68q20 39 20 131q0 80 -18 127q-29 68 -96 68 q-35 0 -57.5 -16.5t-36 -43t-19.5 -62.5t-6 -75z" />
<glyph unicode="&#x26;" horiz-adv-x="851" d="M45 248q0 100 66 178q27 27 66.5 55.5t92.5 57.5l-37 53l-36 53q-33 57 -33 121q0 86 56 142.5t161 56.5q98 0 165.5 -51.5t67.5 -145.5q0 -78 -55 -147q-45 -57 -125 -103l174 -213q31 76 31 150h111q-4 -41 -9.5 -73t-11.5 -52q-4 -20 -16 -48l-29 -65l188 -217h-151 l-103 121q-41 -66 -115.5 -97.5t-156.5 -31.5q-172 0 -248 94q-53 72 -53 162zM166 248q0 -70 54 -116t130 -46q63 0 116.5 30.5t88.5 84.5l-221 266q-51 -29 -86 -55.5t-51 -53.5q-31 -47 -31 -110zM279 762q0 -29 16 -61.5t76 -106.5q61 35 86 65q43 45 43 103 q0 43 -30 72.5t-81 29.5q-45 0 -77.5 -25.5t-32.5 -76.5z" />
<glyph unicode="'" horiz-adv-x="374" d="M141 616v349h92v-349h-92z" />
<glyph unicode="(" horiz-adv-x="350" d="M63 365q0 166 54.5 325.5t158.5 296.5h89q-92 -143 -136.5 -300t-44.5 -322q0 -174 41 -321.5t140 -303.5h-89q-53 80 -91 154.5t-64 140.5q-58 152 -58 330z" />
<glyph unicode=")" horiz-adv-x="350" d="M-6 -260q92 147 132 298.5t40 317.5q0 174 -40 324.5t-132 306.5h80q104 -164 158.5 -313.5t54.5 -317.5q0 -162 -54.5 -320.5t-158.5 -295.5h-80z" />
<glyph unicode="*" horiz-adv-x="475" d="M33 801l24 65l144 -53v152h71v-152l144 53l26 -65l-145 -51l88 -123l-55 -41l-94 129l-86 -129l-62 41l88 123z" />
<glyph unicode="+" horiz-adv-x="811" d="M66 297v90h294v297h91v-297h294v-90h-294v-297h-91v297h-294z" />
<glyph unicode="," horiz-adv-x="374" d="M113 0v150h149v-136q0 -72 -36 -127t-113 -77v67q43 14 61.5 52t18.5 71h-80z" />
<glyph unicode="-" horiz-adv-x="526" d="M68 322v108h391v-108h-391z" />
<glyph unicode="." horiz-adv-x="374" d="M113 0v150h149v-150h-149z" />
<glyph unicode="/" horiz-adv-x="450" d="M-16 -14l391 1001h100l-401 -1001h-90z" />
<glyph unicode="0" horiz-adv-x="751" d="M57 471q0 231 45 322q74 166 273 165q201 0 272 -163q47 -119 47 -324q0 -231 -45 -321q-74 -158 -274 -158q-201 0 -271 155q-47 119 -47 324zM178 471q0 -170 25 -246q43 -139 172 -139q127 0 172 137q27 72 26 248q0 168 -24 246q-47 139 -174 139t-170 -137 q-27 -72 -27 -248z" />
<glyph unicode="1" horiz-adv-x="751" d="M117 686v92q113 0 178 35q82 43 98 145h88v-958h-114v686h-250z" />
<glyph unicode="2" horiz-adv-x="751" d="M33 0q0 156 82 250q23 27 69.5 61.5t116.5 79.5q53 33 90 58.5t58 42.5q98 82 98 192q0 78 -53.5 125t-133.5 47q-92 0 -143 -76q-43 -66 -43 -162h-115q0 154 80 247t230 93q129 0 214 -73.5t85 -202.5q0 -86 -41 -158q-49 -84 -197 -172q-72 -45 -114 -71.5t-52 -34.5 q-84 -66 -98 -146h491v-100h-624z" />
<glyph unicode="3" horiz-adv-x="751" d="M41 297h115q0 -94 53 -152.5t151 -58.5q88 0 147.5 49t59.5 135t-57 135.5t-145 49.5l-70 -4v96h49q78 0 130 40t52 115q0 74 -46 114t-124 40q-92 0 -136 -57.5t-44 -149.5h-115q0 141 77 225t218 84q131 0 212 -63.5t81 -192.5q0 -59 -38 -112t-95 -80 q86 -18 130 -79.5t44 -154.5q0 -139 -98 -219q-90 -66 -232 -65q-147 0 -233 77.5t-86 227.5z" />
<glyph unicode="4" horiz-adv-x="751" d="M37 225v111l438 622h92v-632h129v-101h-129v-225h-108v225h-422zM137 326h322v469z" />
<glyph unicode="5" horiz-adv-x="751" d="M47 258h115q0 -74 57 -123t146 -49q86 0 144 57.5t58 167.5q0 98 -59 158.5t-158 60.5q-55 0 -98 -23.5t-80 -68.5l-98 6l88 498h473v-100h-387l-51 -277q33 33 81 49.5t101 16.5q137 0 223 -83t86 -245q0 -131 -84 -221q-94 -90 -252 -90q-66 0 -121 16.5t-96 50 t-64.5 83.5t-23.5 116z" />
<glyph unicode="6" horiz-adv-x="751" d="M51 444q0 223 74 357q90 158 278 157q123 0 197 -64.5t74 -180.5h-115q-8 68 -50 105.5t-110 37.5q-133 0 -190 -125q-43 -92 -43 -237q82 123 242 122q137 0 215.5 -87t78.5 -224q0 -125 -69 -213q-86 -100 -252 -100q-190 0 -270 145q-60 114 -60 307zM188 299 q0 -92 52.5 -152.5t146.5 -60.5q88 0 140.5 61.5t52.5 149.5q0 94 -49.5 155.5t-143.5 61.5t-146.5 -60.5t-52.5 -154.5z" />
<glyph unicode="7" horiz-adv-x="751" d="M68 834v108h620v-98q-152 -152 -256 -381q-113 -233 -113 -463h-126q0 236 112 459q47 98 113.5 191t152.5 184h-503z" />
<glyph unicode="8" horiz-adv-x="751" d="M53 276q0 86 43 147.5t125 90.5q-59 25 -96 79t-37 120q0 57 21.5 103t59.5 78t89 48t111 16q147 0 223 -75q68 -68 67 -170q0 -61 -36.5 -115.5t-96.5 -83.5q172 -53 172 -238q0 -141 -89 -212.5t-230 -71.5q-150 0 -232 63q-94 76 -94 221zM176 270q0 -86 55.5 -135 t147.5 -49q86 0 141 53.5t55 132.5q0 76 -57 129.5t-139 53.5q-88 0 -145.5 -49.5t-57.5 -135.5zM209 709q0 -74 48 -114t122 -40q70 0 115 41t45 113t-44 109.5t-118 37.5t-121 -37.5t-47 -109.5z" />
<glyph unicode="9" horiz-adv-x="751" d="M45 645q0 70 22.5 127t64.5 99t99.5 64.5t128.5 22.5q152 0 232 -92q98 -115 98 -366q0 -264 -80 -386t-254 -122q-123 0 -200.5 58.5t-89.5 180.5h114q6 -70 54.5 -107.5t121.5 -37.5q217 0 217 369q-37 -61 -95 -95t-130 -34q-147 0 -225 86t-78 233zM168 631 q0 -86 51 -144.5t137 -58.5q88 0 142.5 59.5t54.5 151.5t-49 152q-55 66 -148 65q-98 0 -143 -63.5t-45 -161.5z" />
<glyph unicode=":" horiz-adv-x="374" d="M113 0v150h149v-150h-149zM113 549v149h149v-149h-149z" />
<glyph unicode=";" horiz-adv-x="374" d="M113 0v150h149v-136q0 -72 -36 -127t-113 -77v67q43 14 61.5 52t18.5 71h-80zM113 549v149h149v-149h-149z" />
<glyph unicode="&#x3c;" horiz-adv-x="811" d="M61 301v82l689 311v-92l-576 -260l576 -260v-84z" />
<glyph unicode="=" horiz-adv-x="811" d="M66 160v92h679v-92h-679zM66 432v92h679v-92h-679z" />
<glyph unicode="&#x3e;" horiz-adv-x="811" d="M61 -2v84l576 260l-576 260v92l689 -311v-82z" />
<glyph unicode="?" horiz-adv-x="751" d="M74 664q0 143 81 233t222 90q129 0 207 -70.5t78 -199.5q0 -76 -35 -135q-10 -20 -32 -44t-50 -53q-27 -25 -46.5 -46t-33.5 -38q-37 -53 -37 -112v-53h-115v63q0 68 41 133q25 37 80 92q29 29 47.5 49.5t26.5 34.5q33 51 33 121q0 72 -45 115t-119 43 q-92 0 -140.5 -62.5t-48.5 -160.5h-114zM295 0v150h149v-150h-149z" />
<glyph unicode="@" horiz-adv-x="1081" d="M57 487q0 209 148 355q152 145 354 145q193 0 324 -119q135 -117 135 -297q0 -164 -109 -284q-98 -106 -207 -107q-39 0 -63.5 21.5t-24.5 66.5q-37 -39 -79.5 -65.5t-92.5 -26.5q-86 0 -139 61.5t-53 153.5q0 154 88 266q88 117 229 117q51 0 90 -25.5t62 -84.5l31 86 h86l-115 -385l-10 -41q-4 -16 -4 -27q0 -43 32 -43q61 0 123 102q63 100 64 209q0 156 -108.5 252t-258.5 96q-170 0 -291 -127q-119 -125 -118 -307q0 -178 122.5 -303t294.5 -125q94 0 185.5 45t148.5 119h86q-63 -111 -178 -170t-246 -59q-209 0 -360 139 q-146 145 -146 362zM352 399q0 -57 31 -94t84 -37q82 0 147 99q63 94 64 190q0 49 -34 87t-77 38q-90 0 -153 -92q-62 -93 -62 -191z" />
<glyph unicode="A" horiz-adv-x="876" d="M-2 0l371 965h141l377 -965h-142l-106 291h-408l-108 -291h-125zM272 399h326l-160 449z" />
<glyph unicode="B" horiz-adv-x="925" d="M104 0v965h351q92 0 154.5 -5.5t107.5 -33.5q47 -27 77.5 -77t30.5 -120q0 -76 -38.5 -132t-104.5 -85q88 -20 135 -81.5t47 -154.5q0 -115 -73 -190q-84 -86 -220 -86h-467zM233 109h322q86 0 134 47t48 125q0 92 -58 126.5t-153 34.5h-293v-333zM233 551h259 q205 0 204 154q0 90 -59 124q-45 27 -145 27h-259v-305z" />
<glyph unicode="C" horiz-adv-x="976" d="M57 479q0 219 117 359q125 150 340 149q160 0 268.5 -80t128.5 -233h-127q-20 100 -91.5 153.5t-178.5 53.5q-164 0 -250 -119q-78 -109 -78 -273q0 -176 78 -284q86 -119 250 -119q129 0 204 78t75 201h129q-18 -186 -125 -282.5t-293 -96.5q-217 0 -336 137 q-111 135 -111 356z" />
<glyph unicode="D" horiz-adv-x="952" d="M104 0v965h332q229 0 347 -112t118 -347q0 -258 -111.5 -382t-353.5 -124h-332zM233 109h213q162 0 244 99t82 279t-72 271q-78 98 -249 98h-218v-747z" />
<glyph unicode="E" horiz-adv-x="825" d="M104 0v965h668v-109h-539v-305h502v-109h-502v-333h543v-109h-672z" />
<glyph unicode="F" horiz-adv-x="776" d="M104 0v965h635v-109h-506v-305h445v-109h-445v-442h-129z" />
<glyph unicode="G" horiz-adv-x="1026" d="M57 463q0 223 115 368q125 156 346 156q168 0 273 -74q117 -84 141 -245h-127q-18 104 -96 158.5t-191 54.5q-164 0 -254 -127q-78 -115 -78 -283q0 -160 84 -268q92 -117 248 -117q147 0 228 88t81 225h-309v109h424v-508h-82l-33 121q-53 -74 -134 -104.5t-175 -30.5 q-211 0 -336 135q-125 143 -125 342z" />
<glyph unicode="H" horiz-adv-x="976" d="M104 0v965h129v-414h508v414h129v-965h-129v442h-508v-442h-129z" />
<glyph unicode="I" horiz-adv-x="350" d="M111 0v965h129v-965h-129z" />
<glyph unicode="J" horiz-adv-x="702" d="M31 258v59h127v-41q0 -92 33.5 -141t121.5 -49q86 0 120 44t34 130v705h129v-725q0 -113 -61 -181q-74 -74 -224 -73q-135 0 -207.5 68.5t-72.5 203.5z" />
<glyph unicode="K" horiz-adv-x="901" d="M104 0v965h129v-482l490 482h166l-406 -390l422 -575h-162l-348 487l-162 -149v-338h-129z" />
<glyph unicode="L" horiz-adv-x="751" d="M104 0v965h129v-856h512v-109h-641z" />
<glyph unicode="M" horiz-adv-x="1177" d="M109 0v965h176l303 -811l305 811h176v-965h-121v803l-305 -803h-108l-302 803l-4 -803h-120z" />
<glyph unicode="N" horiz-adv-x="976" d="M104 0v965h136l510 -783l2 783h120v-965h-139l-504 774l-4 -774h-121z" />
<glyph unicode="O" horiz-adv-x="1028" d="M51 483q0 211 115 351q125 154 348 153q219 0 346 -153q117 -141 117 -351q0 -211 -115 -350q-127 -147 -348 -147q-219 0 -346 145q-117 141 -117 352zM180 483q0 -164 78 -272q88 -125 256 -125q166 0 254 125q80 111 80 272q0 164 -78 273q-88 125 -256 125 q-166 0 -254 -125q-80 -111 -80 -273z" />
<glyph unicode="P" horiz-adv-x="876" d="M104 0v965h424q143 0 220 -75t77 -210t-76.5 -210t-220.5 -75h-295v-395h-129zM233 504h252q211 0 211 176q0 88 -50 132t-161 44h-252v-352z" />
<glyph unicode="Q" horiz-adv-x="1028" d="M51 483q0 211 115 351q125 154 348 153q219 0 346 -153q117 -141 117 -351q0 -113 -38 -214t-110 -171l127 -98l-63 -76l-148 111q-102 -49 -231 -49q-219 0 -346 145q-117 141 -117 352zM180 483q0 -164 78 -272q88 -125 256 -125q82 0 133 27l-106 84l67 79l129 -104 q55 55 83 137t28 174q0 164 -78 273q-88 125 -256 125q-166 0 -254 -125q-80 -111 -80 -273z" />
<glyph unicode="R" horiz-adv-x="925" d="M104 0v965h455q137 0 215 -68t78 -184q0 -92 -40 -156.5t-126 -89.5q76 -16 111 -74q25 -43 34 -170q12 -131 15 -133q10 -47 41 -90h-144q-23 23 -26 115q-2 47 -3 76.5t-5 46.5q-16 109 -56.5 141.5t-105.5 32.5h-314v-412h-129zM233 520h269q106 0 157 33 q66 41 66 139q0 78 -39 117q-47 47 -133 47h-320v-336z" />
<glyph unicode="S" horiz-adv-x="876" d="M49 317h123q0 -115 86 -176q76 -55 195 -55q100 0 165 35q80 43 80 139q0 104 -143 150q-16 4 -60 14t-116 27q-141 33 -203 71q-96 61 -96 185q0 135 108 213q94 68 242 67q154 0 250 -72q104 -80 104 -233h-120q-10 104 -72 151.5t-168 47.5q-88 0 -148 -35 q-68 -43 -67 -131q0 -94 141 -133q10 -4 52 -13.5t114 -25.5q147 -33 213 -80q96 -72 96 -199q0 -141 -120 -219q-109 -59 -256 -59q-172 0 -281 71q-119 88 -119 260z" />
<glyph unicode="T" horiz-adv-x="776" d="M2 856v109h772v-109h-321v-856h-129v856h-322z" />
<glyph unicode="U" horiz-adv-x="976" d="M100 348v617h129v-617q0 -129 69 -195.5t198 -66.5q252 0 252 262v617h129v-617q0 -186 -97.5 -274t-283.5 -88q-193 0 -294.5 84.5t-101.5 277.5z" />
<glyph unicode="V" horiz-adv-x="825" d="M0 965h137l277 -836l280 836h135l-344 -965h-145z" />
<glyph unicode="W" horiz-adv-x="1251" d="M16 965h131l189 -803l219 803h139l215 -803l199 803h127l-258 -965h-133l-221 811l-226 -811h-133z" />
<glyph unicode="X" horiz-adv-x="825" d="M0 0l336 496l-318 469h154l240 -377l252 377h143l-320 -469l340 -496h-157l-258 399l-269 -399h-143z" />
<glyph unicode="Y" horiz-adv-x="876" d="M2 965h154l288 -459l283 459h145l-368 -570v-395h-129v395z" />
<glyph unicode="Z" horiz-adv-x="825" d="M31 0v109l600 747h-555v109h704v-109l-598 -747h615v-109h-766z" />
<glyph unicode="[" horiz-adv-x="350" d="M98 -260v1247h252v-90h-145v-1065h145v-92h-252z" />
<glyph unicode="\" horiz-adv-x="450" d="M-16 987h90l401 -1001h-100z" />
<glyph unicode="]" horiz-adv-x="350" d="M0 -168h145v1065h-145v90h252v-1247h-252v92z" />
<glyph unicode="^" horiz-adv-x="811" d="M68 356l294 586h87l294 -586h-94l-246 488l-239 -488h-96z" />
<glyph unicode="_" horiz-adv-x="675" d="M0 -92h676v-68h-676v68z" />
<glyph unicode="`" horiz-adv-x="301" d="M-23 987h140l116 -192h-88z" />
<glyph unicode="a" horiz-adv-x="724" d="M49 180q0 104 72 158q39 33 164 57q41 8 83 14.5t83 14.5q70 18 69 74q0 68 -49 96q-33 20 -106 20q-82 0 -128.5 -29.5t-46.5 -103.5h-114q0 119 90 181q84 53 205 53q115 0 180 -35q84 -47 84 -158v-358q0 -47 5 -62.5t30 -15.5q20 0 37 6v-90q-35 -10 -84 -10 q-96 0 -97 100q-94 -100 -245 -100q-106 0 -164 37q-68 51 -68 151zM170 188q0 -53 38 -77.5t97 -24.5q102 0 164 55q49 45 49 103v116q-27 -20 -88 -29t-123 -20q-61 -8 -99 -36t-38 -87z" />
<glyph unicode="b" horiz-adv-x="800" d="M90 0v965h115v-361q29 55 89 83t138 28q150 0 240 -109q82 -100 82 -258q0 -156 -80 -256q-86 -100 -240 -100q-70 0 -119 14q-72 29 -106 88l-4 -94h-115zM201 350q0 -113 54 -188.5t167 -75.5q106 0 162 84q47 72 47 186q0 109 -51 179q-59 80 -164 79q-109 0 -166 -82 q-49 -71 -49 -182z" />
<glyph unicode="c" horiz-adv-x="724" d="M49 340q0 82 21.5 150.5t63.5 118.5t103.5 78t141.5 28q123 0 206 -60.5t95 -179.5h-119q-29 139 -174 139q-117 0 -167 -75.5t-50 -198.5q0 -102 47 -174q55 -80 158 -80q80 0 130 44t62 126h117q-20 -129 -99 -196.5t-210 -67.5q-154 0 -240 94t-86 254z" />
<glyph unicode="d" horiz-adv-x="800" d="M49 352q0 152 78 254q86 109 242 109q63 0 125.5 -25.5t99.5 -83.5l2 359h115v-965h-115v94q-31 -55 -90.5 -78.5t-134.5 -23.5q-154 0 -238 99t-84 261zM170 344q0 -109 51 -178q57 -80 166 -80q106 0 164 82q49 70 49 180q0 113 -49 184q-57 82 -172 82 q-106 0 -162 -84q-47 -71 -47 -186z" />
<glyph unicode="e" horiz-adv-x="724" d="M49 352q0 158 92 260.5t236 102.5q168 0 252 -135q66 -109 65 -265h-524q0 -98 53 -163.5t164 -65.5q152 0 182 135h113q-23 -117 -99.5 -173t-199.5 -56q-162 0 -248 96t-86 264zM170 416h401q0 86 -57 142t-143 56q-88 0 -144.5 -58t-56.5 -140z" />
<glyph unicode="f" horiz-adv-x="399" d="M16 598v100h117v105q0 174 195 174q39 0 73 -12v-101q-14 6 -38.5 8t-26.5 2q-45 0 -66.5 -17t-21.5 -60v-99h135v-100h-135v-598h-115v598h-117z" />
<glyph unicode="g" horiz-adv-x="776" d="M49 346q0 145 70 246q86 123 252 123q147 0 209 -117h2v100h108v-639q0 -336 -325 -335q-117 0 -193 45q-96 55 -96 161h114q0 -57 56.5 -85.5t124.5 -28.5q111 0 161 67.5t50 190.5v45q-31 -63 -90.5 -91t-131.5 -28q-150 0 -230.5 95t-80.5 251zM170 360 q0 -109 41 -180q51 -86 158 -86q104 0 159 86q47 78 47 185q0 104 -43 170q-53 80 -155 79q-104 0 -155.5 -71.5t-51.5 -182.5z" />
<glyph unicode="h" horiz-adv-x="751" d="M86 0v965h115v-369q29 59 92 89t131 30q133 0 190 -70q51 -57 52 -186v-459h-115v473q0 63 -39 102t-104 39q-104 0 -155.5 -59t-51.5 -160v-395h-115z" />
<glyph unicode="i" horiz-adv-x="301" d="M94 0v698h115v-698h-115zM94 825v140h115v-140h-115z" />
<glyph unicode="j" horiz-adv-x="301" d="M-10 -156l39 -2q37 0 51 20.5t14 76.5v759h115v-780q0 -92 -44 -135t-124 -43l-51 6v98zM94 825v140h115v-140h-115z" />
<glyph unicode="k" horiz-adv-x="702" d="M94 0v965h115v-572l317 305h156l-279 -254l299 -444h-147l-240 365l-106 -101v-264h-115z" />
<glyph unicode="l" horiz-adv-x="301" d="M94 0v965h115v-965h-115z" />
<glyph unicode="m" horiz-adv-x="1153" d="M86 0v698h109v-102q82 119 229 119q70 0 120 -28t70 -91q35 53 95.5 86t124.5 33q111 0 172 -48.5t61 -154.5v-512h-115v459q0 76 -24 110q-31 45 -111 45q-82 0 -132 -48t-50 -130v-436h-117v459q0 76 -24 110q-31 45 -107 45q-92 0 -143 -69q-43 -55 -43 -109v-436 h-115z" />
<glyph unicode="n" horiz-adv-x="751" d="M86 0v698h109v-110q78 127 229 127q133 0 190 -70q51 -57 52 -186v-459h-115v473q0 63 -39 102t-104 39q-104 0 -155.5 -59t-51.5 -160v-395h-115z" />
<glyph unicode="o" horiz-adv-x="776" d="M49 348q0 80 22.5 147.5t66.5 115.5t106.5 76t142.5 28q166 0 253 -100.5t87 -266.5q0 -162 -89 -259t-251 -97q-160 0 -249 97t-89 259zM170 348q0 -123 61.5 -192.5t155.5 -69.5t156.5 68.5t62.5 193.5q0 123 -62.5 194.5t-156.5 71.5q-92 0 -154.5 -71.5t-62.5 -194.5 z" />
<glyph unicode="p" horiz-adv-x="800" d="M90 -260v958h115v-94q29 55 89 83t138 28q150 0 240 -109q82 -100 82 -258q0 -156 -80 -256q-86 -100 -240 -100q-70 0 -119 14q-72 29 -106 88l-4 -354h-115zM201 350q0 -113 54 -188.5t167 -75.5q106 0 162 84q47 72 47 186q0 109 -51 179q-59 80 -164 79 q-109 0 -166 -82q-49 -71 -49 -182z" />
<glyph unicode="q" horiz-adv-x="800" d="M49 352q0 152 78 254q86 109 242 109q63 0 125.5 -25.5t99.5 -83.5l2 92h115v-958h-115v354q-31 -55 -90.5 -78.5t-134.5 -23.5q-154 0 -238 99t-84 261zM170 344q0 -109 51 -178q57 -80 166 -80q106 0 164 82q49 70 49 180q0 113 -49 184q-57 82 -172 82 q-106 0 -162 -84q-47 -71 -47 -186z" />
<glyph unicode="r" horiz-adv-x="450" d="M82 0v698h108v-147q43 82 105.5 123t155.5 41v-121q-135 0 -194.5 -70.5t-59.5 -212.5v-311h-115z" />
<glyph unicode="s" horiz-adv-x="675" d="M41 221h117q0 -74 57 -106q47 -29 129 -29q57 0 111 16q59 25 59 86q0 66 -104 101q-10 4 -42 11t-85 17q-88 25 -154 60q-72 49 -72 139q0 98 78 148q76 51 182 51q131 0 201 -45q86 -55 86 -174h-115q-6 61 -52 89.5t-109 28.5q-61 0 -105.5 -20.5t-44.5 -69.5 q0 -55 74 -82q4 -2 44 -12t112 -27q115 -29 155 -57q72 -49 72 -141q0 -117 -94 -174q-76 -39 -203 -39q-131 0 -207 45q-90 61 -90 184z" />
<glyph unicode="t" horiz-adv-x="425" d="M12 598v100h119v211h115v-211h139v-100h-139v-434q0 -41 15 -52.5t71 -11.5h53v-100h-88q-94 0 -127 27q-39 33 -39 127v444h-119z" />
<glyph unicode="u" horiz-adv-x="751" d="M86 240v458h115v-473q0 -61 39 -100t104 -39q100 0 153.5 59.5t53.5 157.5v395h115v-698h-109v111q-76 -119 -229 -119q-133 0 -191 63q-51 58 -51 185z" />
<glyph unicode="v" horiz-adv-x="675" d="M18 698h129l197 -581l193 581h120l-256 -698h-122z" />
<glyph unicode="w" horiz-adv-x="1024" d="M23 698h127l157 -571l144 571h127l145 -571l160 571h118l-223 -698h-121l-143 555l-143 -555h-123z" />
<glyph unicode="x" horiz-adv-x="700" d="M12 0l262 369l-243 329h147l168 -243l174 243h137l-239 -321l270 -377h-147l-195 289l-194 -289h-140z" />
<glyph unicode="y" horiz-adv-x="675" d="M10 698h131l203 -571l199 571h123l-306 -784q-41 -104 -84 -145t-118 -41q-41 0 -80 12v106q23 -8 38 -12t29 -4q35 0 56.5 15.5t38.5 48.5l49 110z" />
<glyph unicode="z" horiz-adv-x="649" d="M31 0v88l420 510h-394v100h543v-77l-428 -521h446v-100h-587z" />
<glyph unicode="{" horiz-adv-x="450" d="M66 313v93q43 0 76.5 45t33.5 114v246q0 82 45 129t103 47h94v-80h-68q-43 0 -55 -43q-4 -29 -7 -47t-3 -26v-248q0 -72 -27 -111q-35 -55 -90 -70q41 -8 70 -43q47 -53 47 -143v-237q0 -51 14 -84t51 -33h68v-82h-94q-55 0 -99 45q-49 51 -49 133v238q0 70 -33.5 113.5 t-76.5 43.5z" />
<glyph unicode="|" horiz-adv-x="301" d="M104 -14v1001h93v-1001h-93z" />
<glyph unicode="}" horiz-adv-x="450" d="M33 -178h67q41 0 58 53q8 18 8 64v237q0 72 27 111q35 57 90 71q-41 8 -70 43q-47 53 -47 142v245q0 51 -14.5 85t-51.5 34h-67v80h94q55 0 100 -47t45 -129v-246q0 -70 34 -114.5t79 -44.5v-93q-45 0 -79 -44t-34 -113v-238q0 -80 -45 -129t-100 -49h-94v82z" />
<glyph unicode="~" horiz-adv-x="811" d="M94 309q27 53 60 80q45 37 108 37q37 0 90 -18q16 -4 60 -25q14 -6 32.5 -15.5t40.5 -19.5q39 -20 66 -20q37 0 67 32q10 10 22.5 28t29.5 44l47 -67q-49 -72 -86 -94.5t-82 -22.5q-47 -4 -100.5 26.5t-106.5 51.5q-47 18 -86 18q-49 0 -84 -47q-12 -16 -31 -55z" />
<glyph unicode="&#xa4;" horiz-adv-x="839" d="M8 164l76 -76l145 148q82 -61 193 -62q53 0 105.5 18.5t82.5 43.5l150 -148l71 76l-145 145q59 78 59 193q0 111 -59 188l145 150l-71 71l-150 -145q-33 27 -83 43t-105 16q-115 0 -193 -59l-145 145l-76 -71l148 -150q-61 -74 -62 -188q0 -111 62 -193zM197 502 q0 88 65 160q63 68 160 67q49 0 89 -18.5t69.5 -49t46 -72.5t16.5 -87q0 -100 -63 -164q-66 -68 -158 -68q-98 0 -162 68q-63 70 -63 164z" />
<glyph unicode="&#xa9;" horiz-adv-x="1081" d="M37 483q0 211 145.5 356.5t358.5 145.5t358 -145.5t145 -356.5q0 -213 -145 -358q-143 -137 -358 -137t-359 137q-145 145 -145 358zM117 483q0 -180 121 -307q119 -125 303 -125t303 125q121 127 121 307q0 178 -121 305q-119 125 -303 125q-180 0 -303 -125 q-121 -127 -121 -305zM260 483q0 137 78 223.5t215 86.5q98 0 166.5 -53.5t83.5 -151.5h-70q-12 63 -58 103t-120 40q-104 0 -163.5 -68.5t-59.5 -179.5t56 -180.5t167 -69.5q72 0 119 40t59 104h70q-14 -98 -83 -151.5t-167 -53.5q-135 0 -214 87t-79 224z" />
<glyph unicode="&#xab;" horiz-adv-x="626" d="M68 315v121l204 162v-117l-135 -106l135 -105v-116zM332 315v121l207 162v-117l-136 -106l136 -105v-116z" />
<glyph unicode="&#xac;" horiz-adv-x="811" d="M78 317h571v-186h84v268h-655v-82z" />
<glyph unicode="&#xad;" horiz-adv-x="811" d="M78 328h655v61h-655v-61z" />
<glyph unicode="&#xae;" horiz-adv-x="1081" d="M37 483q0 211 145.5 356.5t358.5 145.5t358 -145.5t145 -356.5q0 -213 -145 -358q-143 -137 -358 -137t-359 137q-145 145 -145 358zM117 483q0 -180 121 -307q119 -125 303 -125t303 125q121 127 121 307q0 178 -121 305q-119 125 -303 125q-180 0 -303 -125 q-121 -127 -121 -305zM358 193v581h224q188 0 188 -162q0 -72 -40 -111.5t-105 -49.5l172 -258h-84l-162 258h-121v-258h-72zM430 510h94q94 0 121 14q53 23 53 88q0 55 -37.5 78t-99.5 23h-131v-203z" />
<glyph unicode="&#xb0;" horiz-adv-x="540" d="M66 713q0 41 15 77.5t43 64.5t63.5 44t78.5 16t80 -15t64.5 -43t44 -64.5t16.5 -79.5t-16.5 -80t-44 -64.5t-64.5 -43t-80 -15.5q-41 0 -76.5 15.5t-63.5 43t-44 64.5t-16 80zM121 713q0 -59 43 -103.5t102 -44.5q61 0 105 43q45 45 45 105q0 59 -44 102t-106 43 q-61 0 -103 -42t-42 -103z" />
<glyph unicode="&#xb6;" horiz-adv-x="727" d="M0 858q0 154 94 229q90 66 248 66h389v-41h-102v-1358h-62v1358h-145v-1358h-55v807q-168 0 -263 62q-104 73 -104 235z" />
<glyph unicode="&#xb7;" horiz-adv-x="337" d="M96 449q0 31 20.5 51t53.5 20q31 0 51.5 -21.5t20.5 -49.5q0 -31 -21.5 -52.5t-50.5 -21.5q-33 0 -53.5 20.5t-20.5 53.5z" />
<glyph unicode="&#x2219;" horiz-adv-x="337" d="M96 449q0 31 20.5 51t53.5 20q31 0 51.5 -21.5t20.5 -49.5q0 -31 -21.5 -52.5t-50.5 -21.5q-33 0 -53.5 20.5t-20.5 53.5z" />
<glyph unicode="&#xbb;" horiz-adv-x="626" d="M88 154v116l135 105l-135 106v117l205 -162v-121zM352 154v116l135 105l-135 106v117l207 -162v-121z" />
<glyph unicode="&#xd7;" horiz-adv-x="811" d="M96 98l246 246l-244 242l64 65l246 -243l241 243l66 -65l-244 -242l246 -246l-66 -65l-243 246l-246 -246z" />
<glyph unicode="&#xf7;" horiz-adv-x="811" d="M66 297v90h679v-90h-679zM319 63q0 37 25 62t62 25q35 0 60.5 -26t25.5 -61q0 -33 -25 -55t-59 -22q-35 0 -62 20t-27 57zM319 621q0 37 25 61.5t62 24.5q35 0 60.5 -26t25.5 -60q0 -33 -25 -59.5t-59 -26.5q-35 0 -62 24.5t-27 61.5z" />
<glyph unicode="&#xe00;" horiz-adv-x="204" />
<glyph unicode="&#xe01;" horiz-adv-x="839" d="M86 0v657q121 176 334 177q70 0 131 -18.5t106 -54.5t71 -87t26 -117v-557h-119v545q0 86 -60.5 133t-154.5 47q-145 0 -215 -100v-625h-119z" />
<glyph unicode="&#xe02;" horiz-adv-x="763" d="M53 322q0 98 49 184q41 72 121 133l-104 139l104 53l150 -200q-203 -123 -203 -309q0 -47 15.5 -88t43 -72t65.5 -49.5t83 -18.5q80 0 131 53.5t51 126.5v545h119v-545q0 -129 -83 -204.5t-218 -75.5q-137 0 -232 86q-92 95 -92 242z" />
<glyph unicode="&#xe03;" horiz-adv-x="761" d="M31 745l69 84q29 -14 51.5 -32.5t36.5 -34.5l74 57h98v-248q-41 -20 -74.5 -44.5t-56.5 -55.5q-53 -72 -53 -154q0 -98 56.5 -160.5t148.5 -62.5q78 0 127 53.5t49 131.5v540h119v-540q0 -131 -83 -208t-212 -77q-137 0 -227 84q-90 96 -91 239q0 98 46.5 169t138.5 126 v70l-68 -49q-4 6 -8 11t-8 9q-47 53 -133 92z" />
<glyph unicode="&#xe04;" horiz-adv-x="839" d="M86 0v553q0 121 98.5 201t235.5 80q131 0 233 -80q100 -80 101 -201v-553h-119v553q0 74 -65.5 123t-149.5 49q-86 0 -150 -49q-66 -47 -65 -123v-84h246v-111h-246v-358h-119z" />
<glyph unicode="&#xe05;" horiz-adv-x="880" d="M86 0v565q0 55 18.5 104.5t52 85.5t81 57.5t106.5 21.5l96 -99l99 99q115 0 188 -82q68 -78 68 -187v-565h-117v565q0 55 -27.5 99.5t-72.5 54.5l-136 -141l-139 141q-45 -10 -71.5 -54t-26.5 -100v-96h268v-111h-268v-358h-119z" />
<glyph unicode="&#xe06;" horiz-adv-x="851" d="M14 748l82 81q12 -8 24.5 -18t26.5 -20q10 -8 18 -16l11 -11l72 55h100v-190q0 -37 -37 -64q-86 -72 -86 -106v-172q0 -78 76 -141.5t168 -63.5q82 0 130 48t48 128v561h119v-557q0 -123 -69.5 -195.5t-192.5 -72.5q-82 0 -157 33.5t-122 93.5v-121h-119v475q0 51 82 109 q41 29 41 59v37l-67 -57q-10 12 -20.5 21t-18.5 18q-27 23 -53.5 44.5t-55.5 41.5z" />
<glyph unicode="&#xe07;" horiz-adv-x="786" d="M0 819h123l180 -713q143 0 228 79t85 223q0 299 -366 299v114q485 0 485 -413q0 -199 -117.5 -303.5t-328.5 -104.5h-49h-19h-12z" />
<glyph unicode="&#xe08;" horiz-adv-x="802" d="M0 672q156 162 367 162q174 0 278 -115q106 -113 107 -293q0 -195 -134 -311q-133 -115 -356 -115l-98 403h-82v115h182l92 -407q119 0 197 90q80 92 80 225q0 135 -74 217t-203 82q-80 0 -146.5 -35t-121.5 -94z" />
<glyph unicode="&#xe09;" horiz-adv-x="813" d="M29 373v116h176v-231q0 -82 45 -129t125 -47q92 0 162 63q74 63 73 148v260q0 76 -62.5 124t-148.5 48q-78 0 -145.5 -41t-89.5 -113h-117q12 61 46 109.5t81 82.5t105.5 52.5t119.5 18.5q131 0 229.5 -80t98.5 -201v-483l35 -70h-152v121q-47 -57 -118.5 -92t-151.5 -35 q-119 0 -186.5 71.5t-67.5 196.5v111h-57z" />
<glyph unicode="&#xe0a;" horiz-adv-x="772" d="M86 37v782h119v-702q18 -4 60 -11.5t79 -7.5q123 0 190.5 59.5t67.5 164.5q0 207 -299 272l254 235l121 -43l-174 -161q51 -23 90 -51.5t65 -63.5q59 -78 60 -188q0 -147 -97.5 -236.5t-277.5 -89.5q-90 0 -184 16q-31 9 -74 25z" />
<glyph unicode="&#xe0b;" horiz-adv-x="788" d="M2 745l70 84q53 -31 78 -67l63 57h98v-168q0 -31 -43 -88q-43 -59 -43 -102v-344q27 -8 60.5 -13.5t81.5 -5.5q119 0 185 59.5t66 164.5q0 207 -294 272l254 235l120 -43l-176 -159q98 -43 155.5 -118t57.5 -187q0 -147 -95 -236.5t-275 -89.5q-41 0 -87.5 3t-93.5 13 l-73 25v440q0 47 41 101q43 51 43 81v23l-54 -49q-8 14 -15 23.5t-13 15.5q-41 42 -111 73z" />
<glyph unicode="&#xe0c;" horiz-adv-x="1368" d="M86 0v657q121 176 334 177q70 0 131 -18.5t106 -54.5t71 -87t26 -117v-270q0 -78 73 -142q76 -63 164 -63q80 0 126 45t46 131v561h119v-557q0 -125 -69.5 -196.5t-186.5 -71.5q-170 0 -272 127v-121h-119v545q0 86 -60.5 133t-154.5 47q-145 0 -215 -100v-514h127v-111 h-246z" />
<glyph unicode="&#xe0d;" horiz-adv-x="1368" d="M86 0v657q121 176 334 177q70 0 131 -18.5t106 -54.5t71 -87t26 -117v-119q0 -74 57 -112.5t143 -38.5q92 0 150.5 46t58.5 126v360h119v-553q0 -127 -98 -203q-96 -72 -240 -71q-98 0 -176 26.5t-139 100.5l84 76q49 -55 106.5 -81t122.5 -26q82 0 141 35q70 43 80 127 q-41 -29 -94 -49.5t-115 -20.5q-143 0 -231 69.5t-88 192.5v103q0 86 -60.5 133t-154.5 47q-145 0 -215 -100v-514h127v-111h-246z" />
<glyph unicode="&#xe0e;" horiz-adv-x="849" d="M0 0v111h96v546q121 176 334 177q70 0 131.5 -18.5t106.5 -54.5t70.5 -87t25.5 -117v-852h-102l-164 123l-172 -123h-326v113h299l203 145l143 -108v690q0 86 -60.5 133t-154.5 47q-145 0 -215 -100v-625h-215z" />
<glyph unicode="&#xe0f;" horiz-adv-x="849" d="M0 0v111h96v546q121 176 334 177q70 0 131.5 -18.5t106.5 -54.5t70.5 -87t25.5 -117v-852h-107l-102 102l-109 -122l-108 122l-107 -102h-231v115h190l152 139l104 -119l109 119l90 -90v676q0 86 -60.5 133t-154.5 47q-145 0 -215 -100v-625h-215z" />
<glyph unicode="&#xe10;" horiz-adv-x="804" d="M2 672q160 162 367 162q100 0 178 -37l78 94l112 -53l-100 -109q117 -117 117 -307t-133 -307q-133 -115 -357 -115l-100 412h-80v106h182l92 -409q119 0 197 90q80 92 80 223q0 63 -19.5 117.5t-55.5 94.5t-85 61.5t-110 21.5q-143 0 -269 -119zM16 -168h158l148 137 l100 -116l106 116l109 -100v70l-39 61h158v-283h-123l-105 101l-106 -121l-105 121l-104 -101h-197v115z" />
<glyph unicode="&#xe11;" horiz-adv-x="849" d="M12 748l82 81q12 -8 24.5 -18t26.5 -20q10 -8 18 -16l11 -11l72 55h100v-190q0 -37 -37 -64q-86 -72 -86 -106v-199l295 563q117 0 181.5 -62.5t64.5 -168.5v-592h-119v594q0 39 -18.5 72.5t-48.5 42.5l-367 -709h-107v475q0 51 82 109q41 29 41 59v37l-67 -57 q-10 12 -20.5 21t-18.5 18q-27 23 -53.5 44.5t-55.5 41.5z" />
<glyph unicode="&#xe12;" horiz-adv-x="1429" d="M53 395q0 166 94 291q94 129 222 148l106 -101l94 92q119 0 186.5 -74.5t67.5 -191.5v-272q0 -78 74 -142q70 -63 160 -63q168 0 168 176v561h118v-557q0 -125 -66.5 -196.5t-184.5 -71.5q-166 0 -269 127v-121h-118v559q0 53 -26 96t-67 56l-135 -133l-143 131 q-57 -33 -105 -115q-55 -96 -55 -199q0 -61 12.5 -113.5t36 -92t60 -62.5t86.5 -23q72 0 112 62l88 -72q-80 -96 -200 -96q-154 0 -235 102t-81 295z" />
<glyph unicode="&#xe13;" horiz-adv-x="1368" d="M86 0v657q121 176 334 177q70 0 131 -18.5t106 -54.5t71 -87t26 -117v-295q0 -76 50 -122t136 -46q80 0 152 53q72 55 71 132v540h119v-819h-119v76q-37 -39 -100.5 -60.5t-130.5 -21.5q-141 0 -219 70.5t-78 201.5v279q0 86 -60.5 133t-154.5 47q-145 0 -215 -100v-514 h127v-111h-246z" />
<glyph unicode="&#xe14;" horiz-adv-x="849" d="M53 389q0 182 113 313.5t280 131.5q127 0 211 -56q33 -23 59.5 -52.5t47.5 -68.5v-657h-119v618q-23 37 -59 64q-55 37 -129 37q-125 0 -207 -101q-80 -102 -80 -229q0 -59 12.5 -111.5t36 -90t59 -60.5t82.5 -23q63 0 113 58l86 -74q-39 -45 -72 -65q-53 -25 -127 -25 q-150 0 -228.5 102.5t-78.5 288.5z" />
<glyph unicode="&#xe15;" horiz-adv-x="886" d="M53 395q0 162 92.5 291t210.5 148l101 -103l94 94q117 0 182.5 -73.5t65.5 -190.5v-561h-117v561q0 49 -25.5 93t-64.5 57l-131 -136l-139 134q-57 -39 -99 -113q-53 -96 -53 -201q0 -125 41 -202q49 -88 145 -89q72 0 113 62l88 -72q-41 -53 -87 -74.5t-114 -21.5 q-147 0 -225 105.5t-78 291.5z" />
<glyph unicode="&#xe16;" horiz-adv-x="839" d="M86 0v657q121 176 334 177q70 0 131 -18.5t106 -54.5t71 -87t26 -117v-557h-119v545q0 86 -60.5 133t-154.5 47q-145 0 -215 -100v-514h127v-111h-246z" />
<glyph unicode="&#xe17;" horiz-adv-x="839" d="M86 0v819h119v-121q41 57 114.5 96.5t155.5 39.5q129 0 204 -77t75 -208v-549h-119v539q0 92 -47 142t-135 50q-100 0 -174 -73.5t-74 -155.5v-502h-119z" />
<glyph unicode="&#xe18;" horiz-adv-x="770" d="M59 618q0 94 95 152q94 61 215 61q119 0 216 -60t134 -177h-123q-20 57 -90 93t-146 36q-70 0 -124 -28.5t-54 -67.5t72 -62q8 -2 45 -9t104 -17q129 -20 209 -76q98 -72 99 -203q0 -131 -109 -205q-102 -59 -256 -59q-96 0 -221 22q-10 2 -22.5 6.5t-26.5 8.5v358 l114 41v-313q33 -8 82.5 -14.5t73.5 -6.5q98 0 166 37q80 43 80 125q0 76 -61.5 118t-153.5 52q-74 8 -129 21.5t-90 29.5q-99 45 -99 137z" />
<glyph unicode="&#xe19;" horiz-adv-x="839" d="M86 270v549h119v-538q0 -92 47 -142.5t135 -50.5q100 0 174 74t74 155v502h119v-819h-119v121q-41 -57 -115 -92t-155 -35q-129 0 -204 72.5t-75 203.5z" />
<glyph unicode="&#xe1a;" horiz-adv-x="839" d="M86 266v553h119v-553q0 -37 17.5 -68.5t47 -55t68.5 -36t82 -12.5t82 12.5t68.5 36t47 55t17.5 68.5v553h119v-553q0 -121 -99 -200q-102 -72 -235 -72t-236 72q-98 79 -98 200z" />
<glyph unicode="&#xe1b;" horiz-adv-x="839" d="M86 266v553h119v-553q0 -37 17.5 -68.5t47 -55t68.5 -36t82 -12.5t82 12.5t68.5 36t47 55t17.5 68.5v799h119v-799q0 -121 -99 -200q-102 -72 -235 -72t-236 72q-98 79 -98 200z" />
<glyph unicode="&#xe1c;" horiz-adv-x="1054" d="M10 819h266v-110h-112l125 -476l188 586h96l193 -586l156 586h120l-219 -819h-100l-199 596l-192 -596h-99z" />
<glyph unicode="&#xe1d;" horiz-adv-x="1054" d="M10 819h266v-110h-112l127 -471l188 581h99l190 -581l219 827h121l-283 -1065h-100l-199 606l-194 -606h-99z" />
<glyph unicode="&#xe1e;" horiz-adv-x="1054" d="M10 819h121l158 -586l188 586h96l193 -586l156 586h120l-219 -819h-100l-199 596l-192 -596h-99z" />
<glyph unicode="&#xe1f;" horiz-adv-x="1054" d="M10 819h121l158 -586l188 586h96l193 -586l221 832h121l-285 -1065h-100l-199 596l-192 -596h-99z" />
<glyph unicode="&#xe20;" horiz-adv-x="849" d="M0 0v111h96v546q121 176 334 177q70 0 131.5 -18.5t106.5 -54.5t70.5 -87t25.5 -117v-557h-119v545q0 86 -60.5 133t-154.5 47q-145 0 -215 -100v-625h-215z" />
<glyph unicode="&#xe21;" horiz-adv-x="839" d="M86 0v819h119v-502q0 -82 73.5 -155.5t174.5 -73.5q86 0 134 50t48 143v538h119v-549q0 -131 -75 -203.5t-204 -72.5q-82 0 -155.5 34.5t-114.5 92.5v-121h-119z" />
<glyph unicode="&#xe22;" horiz-adv-x="837" d="M53 264q0 72 45 128.5t99 80.5q-47 12 -85 56t-38 102q0 43 19.5 78.5t53 62.5t78.5 42t99 15q70 0 125 -24v-117q-74 25 -123 25q-59 0 -95 -19.5t-36 -62.5q0 -45 46 -67.5t105 -22.5h103v-115h-84q-74 0 -132 -45q-59 -47 -59 -115q0 -76 68.5 -124t179.5 -48 q61 0 137 29q18 8 36.5 19.5t37.5 25.5v651h119v-694q-39 -49 -78 -68q-115 -61 -252 -61q-180 0 -274.5 72.5t-94.5 195.5z" />
<glyph unicode="&#xe23;" horiz-adv-x="782" d="M51 289h115q0 -96 72 -150q61 -43 157 -43q45 0 85 10.5t71 31t48 49t17 65.5q0 66 -69 96q-27 10 -64 19.5t-88 13.5q-152 14 -223 49q-102 49 -102 152q0 106 92 178q94 74 223 74q135 0 226 -62.5t112 -173.5h-121q-23 59 -80 92t-137 33q-39 0 -75 -10.5t-62.5 -28.5 t-43 -40.5t-16.5 -47.5t18.5 -44.5t51.5 -32.5t74 -20t88 -7q129 0 211 -52q100 -61 100 -178q0 -127 -100 -201q-102 -68 -240 -67q-139 0 -235 65q-105 83 -105 230z" />
<glyph unicode="&#xe24;" horiz-adv-x="839" d="M86 0v657q121 176 334 177q70 0 131 -18.5t106 -54.5t71 -87t26 -117v-856h-119v844q0 86 -60.5 133t-154.5 47q-145 0 -215 -100v-514h127v-111h-246z" />
<glyph unicode="&#xe25;" horiz-adv-x="858" d="M49 254q0 129 92 221q100 100 265 100q82 0 142 -22.5t105 -63.5v132q-18 43 -76.5 70.5t-127.5 27.5q-82 0 -144.5 -33t-93.5 -92h-127q39 117 133 178.5t229 61.5q61 0 115.5 -15.5t97.5 -41t72 -60.5t41 -74v-643h-119v330q-31 57 -96 94t-151 37q-106 0 -172 -59.5 t-66 -147.5q0 -61 40 -105.5t99 -44.5q29 0 56.5 7.5t62.5 29.5l70 -88q-37 -33 -80 -44t-109 -11q-111 0 -186 72q-72 78 -72 184z" />
<glyph unicode="&#xe26;" horiz-adv-x="849" d="M0 0v111h96v546q121 176 334 177q70 0 131.5 -18.5t106.5 -54.5t70.5 -87t25.5 -117v-856h-119v844q0 86 -60.5 133t-154.5 47q-145 0 -215 -100v-625h-215z" />
<glyph unicode="&#xe27;" horiz-adv-x="778" d="M49 256h119q29 -72 85 -114t122 -42q111 0 176 97q57 82 57 213t-57 213q-66 96 -176 96q-66 0 -120 -40t-83 -116h-123q35 131 124 201t202 70q162 0 260 -127q90 -121 90 -297t-90 -297q-94 -119 -260 -119q-106 0 -197 59q-96 74 -129 203z" />
<glyph unicode="&#xe28;" horiz-adv-x="839" d="M86 0v553q0 121 98.5 201t235.5 80q63 0 145 -29l74 86l113 -53l-86 -95q41 -39 64.5 -87t23.5 -103v-553h-119v553q0 74 -65.5 123t-149.5 49q-86 0 -150 -49q-66 -47 -65 -123v-84h246v-111h-246v-358h-119z" />
<glyph unicode="&#xe29;" horiz-adv-x="854" d="M86 266v553h119v-557q0 -76 62.5 -122t156.5 -46q88 0 151.5 46t63.5 122v113h-227v168l84 -54h143v330h123v-330h78v-114h-78v-109q0 -121 -103 -200q-102 -72 -235 -72q-137 0 -240 72q-98 75 -98 200z" />
<glyph unicode="&#xe2a;" horiz-adv-x="858" d="M51 254q0 129 92 221q100 100 265 100q156 0 245 -86v121q-18 45 -75.5 77t-126.5 32q-82 0 -144.5 -33t-93.5 -92h-127q37 117 132 178.5t231 61.5q49 0 80.5 -6.5t70.5 -22.5l76 86l112 -53l-86 -97q51 -45 70 -104v-637h-119v330q-29 55 -96.5 93t-148.5 38 q-111 0 -174.5 -59.5t-63.5 -147.5q0 -61 40 -105.5t99 -44.5q29 0 56.5 7.5t62.5 29.5l70 -88q-37 -33 -80 -44t-109 -11q-111 0 -186 72q-72 78 -72 184z" />
<glyph unicode="&#xe2b;" horiz-adv-x="849" d="M86 0v819h119v-305l465 315l127 -43l-219 -143q104 -31 150 -93.5t46 -166.5v-383h-119v379q0 82 -44 133t-136 61l-270 -186v-387h-119z" />
<glyph unicode="&#xe2c;" horiz-adv-x="1054" d="M10 819h123l156 -581l190 581h96l193 -581l96 358q6 18 6 35q0 37 -28.5 59.5t-67.5 22.5h-80v106h88q82 0 118 17.5t46 66.5l35 121h125l-43 -158q-16 -49 -55 -82q-29 -23 -72 -36q53 -35 53 -109q0 -31 -8 -55l-156 -584h-100l-199 606l-192 -606h-101z" />
<glyph unicode="&#xe2d;" horiz-adv-x="915" d="M51 410q0 27 1 44t3 27h318v-114h-201q14 -119 91 -193t194 -74q63 0 115.5 22.5t90 64.5t58 98.5t20.5 124.5q0 137 -76.5 223t-207.5 86q-176 0 -252 -156h-129q39 129 141 200t240 71q182 0 293 -119q113 -113 112 -305q0 -186 -112 -306q-115 -111 -293 -110 q-182 0 -295 110q-111 118 -111 306z" />
<glyph unicode="&#xe2e;" horiz-adv-x="915" d="M51 410q0 27 1 44t3 27h318v-114h-201q14 -119 91 -193t194 -74q63 0 115.5 22.5t90 64.5t58 98.5t20.5 124.5q0 137 -76.5 223t-207.5 86q-172 0 -252 -156h-129q39 129 141 200t240 71q106 0 182 -39l78 94l90 -64l-78 -90q133 -121 133 -325q0 -186 -112 -306 q-115 -111 -293 -110q-182 0 -295 110q-111 118 -111 306z" />
<glyph unicode="&#xe2f;" horiz-adv-x="790" d="M33 635q0 86 69.5 140t176.5 54q35 0 65.5 -6t63.5 -16v-113q-74 25 -127 25t-92 -21.5t-39 -62.5q0 -43 49 -68.5t114 -25.5q111 0 187 51q45 31 86 80v147h119v-819h-119v518q-27 -20 -53.5 -33.5t-53.5 -23.5q-59 -27 -166 -27q-131 0 -205.5 57.5t-74.5 143.5z" />
<glyph unicode="&#xe30;" horiz-adv-x="319" d="M51 102v136h119v-58h129v-78h-248zM51 582v135h119v-58h129v-77h-248z" />
<glyph unicode="&#xe31;" d="M-375 922v184h119v-86h436v-98h-555z" />
<glyph unicode="&#xe32;" horiz-adv-x="589" d="M33 662v129q35 20 77 31.5t101 11.5q147 0 220 -83t73 -212v-539h-117v506q0 94 -47 153.5t-135 59.5q-49 0 -92 -16t-80 -41z" />
<glyph unicode="&#xe33;" horiz-adv-x="589" d="M-256 1028q0 45 33 76t84 31q47 0 81.5 -31t34.5 -76t-32.5 -75.5t-83.5 -30.5q-47 0 -82 30.5t-35 75.5zM-190 1028q0 -18 15 -32.5t36 -14.5q18 0 34.5 14.5t16.5 32.5t-15.5 32.5t-35.5 14.5q-18 0 -34.5 -14.5t-16.5 -32.5zM33 662v129q35 20 77 31.5t101 11.5 q147 0 220 -83t73 -212v-539h-117v506q0 94 -47 153.5t-135 59.5q-49 0 -92 -16t-80 -41z" />
<glyph unicode="&#xe34;" d="M-713 922v98h635v-98h-635z" />
<glyph unicode="&#xe35;" d="M-713 922v98h516v106h119v-204h-635z" />
<glyph unicode="&#xe36;" d="M-713 922v98h461v8q0 45 33 76t80 31q49 0 81.5 -31t32.5 -76t-32.5 -75.5t-81.5 -30.5h-574zM-188 1028q0 -18 14 -32.5t35 -14.5q18 0 34.5 14.5t16.5 32.5t-15.5 32.5t-35.5 14.5q-16 0 -32.5 -14.5t-16.5 -32.5z" />
<glyph unicode="&#xe37;" d="M-713 922v98h367v106h88v-106h61v106h119v-204h-635z" />
<glyph unicode="&#xe38;" d="M-279 -74h201v-235h-119v133h-82v102z" />
<glyph unicode="&#xe39;" d="M-475 -74h174v-143q8 -4 14 -6q18 -6 35 -6q55 0 55 39v116h119v-123q0 -55 -51 -88.5t-123 -33.5q-51 0 -92 15t-72 52v76h-59v102z" />
<glyph unicode="&#xe3a;" d="M-219 -156q0 35 23.5 58.5t58.5 23.5t58.5 -23.5t23.5 -58.5t-23.5 -58.5t-58.5 -23.5t-58.5 23.5t-23.5 58.5z" />
<glyph unicode="&#xe3f;" horiz-adv-x="925" d="M104 0v965h312v112h73v-112q88 0 136.5 -6.5t85.5 -28.5q53 -31 83.5 -81t30.5 -120q0 -76 -38.5 -132t-104.5 -85q88 -20 135 -81.5t47 -154.5q0 -115 -73 -190q-84 -86 -220 -86h-82v-125h-73v125h-312zM233 109h183v333h-183v-333zM233 551h183v305h-183v-305z M489 109h66q86 0 134 47t48 125q0 92 -58 126.5t-153 34.5h-37v-333zM489 551q207 0 207 154q0 90 -59 124q-45 27 -145 27z" />
<glyph unicode="&#xe40;" horiz-adv-x="323" d="M102 0v819h119v-819h-119z" />
<glyph unicode="&#xe41;" horiz-adv-x="544" d="M102 0v819h119v-819h-119zM324 0v819h120v-819h-120z" />
<glyph unicode="&#xe42;" horiz-adv-x="364" d="M-8 1137q0 63 41 93t117 30h268v-107h-277q-35 0 -35 -18q0 -12 68 -67.5t68 -149.5v-918h-119v903q0 63 -70 125q-61 62 -61 109z" />
<glyph unicode="&#xe43;" horiz-adv-x="364" d="M-80 1061q0 98 58.5 158.5t150.5 60.5q45 0 84 -14.5t66.5 -38t44 -56t16.5 -69.5q0 -47 -31 -84q-68 -84 -67 -123v-895h-119v915q0 59 49 107q51 45 51 76t-26.5 51t-67.5 20q-100 0 -100 -108h-109z" />
<glyph unicode="&#xe44;" horiz-adv-x="364" d="M-86 1184l74 86l104 -105l113 95l139 -166q-43 -37 -72.5 -97.5t-29.5 -134.5v-862h-119v842q0 80 31 141q10 20 27.5 43t39.5 45l-33 37l-98 -86z" />
<glyph unicode="&#xe45;" horiz-adv-x="606" d="M33 662v129q33 18 80 30.5t106 12.5q147 0 227 -86q74 -80 74 -209v-838h-117v805q0 98 -49 155.5t-141 57.5q-49 0 -97 -16t-83 -41z" />
<glyph unicode="&#xe46;" horiz-adv-x="800" d="M33 434v144q0 123 57 187t180 64l103 -81l104 81q117 0 177.5 -66.5t60.5 -184.5v-877h-119v877q0 117 -74 139l-147 -121l-152 121q-39 -10 -55 -48t-16 -91v-29h161v-115h-280z" />
<glyph unicode="&#xe47;" d="M-680 922v79q0 88 56.5 138.5t166.5 50.5h373v-82h-367q-51 0 -80.5 -23.5t-29.5 -54.5l84 -6l108 57l105 -57h117v-102h-123l-99 59l-100 -59h-211z" />
<glyph unicode="&#xe48;" d="M-197 1188v164h119v-164h-119z" />
<glyph unicode="&#xe49;" d="M-340 1298v74h74q86 0 86 -69v-23h219v-92h-326v72q0 39 -37 38h-16z" />
<glyph unicode="&#xe4a;" d="M-358 1188v90q0 51 31.5 81t80.5 30h39l66 -46l65 46h33q43 0 72.5 -24t29.5 -75v-18h109v-84h-201v98q0 29 -20 29l-88 -60l-92 60q-27 0 -27 -31v-18h55v-78h-153z" />
<glyph unicode="&#xe4b;" d="M-274 1264v75h88v76h98v-76h88v-75h-88v-76h-98v76h-88z" />
<glyph unicode="&#xe4c;" d="M-227 1102v51q0 55 34.5 81t92.5 26h92v-93h-55q-55 0 -56 -47v-18h-108z" />
<glyph unicode="&#xe4d;" d="M-256 1028q0 45 33 76t84 31q47 0 81.5 -31t34.5 -76t-32.5 -75.5t-83.5 -30.5q-47 0 -82 30.5t-35 75.5zM-190 1028q0 -18 15 -32.5t36 -14.5q18 0 34.5 14.5t16.5 32.5t-15.5 32.5t-35.5 14.5q-18 0 -34.5 -14.5t-16.5 -32.5z" />
<glyph unicode="&#xe4e;" d="M-455 1133q0 41 24.5 74.5t65.5 54.5q35 23 82 24q-43 20 -43 74q0 41 36 83t91 62q53 23 118 28t136 5h25v-100q-27 2 -46.5 3t-33.5 1q-92 0 -153.5 -20.5t-61.5 -63.5q0 -29 29.5 -35t91.5 -6v-94q-20 2 -35.5 3t-28.5 1q-80 0 -134 -22.5t-54 -59.5q0 -29 49 -29 q31 0 58.5 9.5t58.5 23.5l49 -82q-35 -18 -80 -32.5t-90 -14.5q-6 2 -16 2h-11q-57 6 -92 37t-35 74z" />
<glyph unicode="&#xe4f;" horiz-adv-x="983" d="M72 410q0 174 122.5 296.5t297.5 122.5q174 0 296.5 -122.5t122.5 -296.5t-123 -297q-127 -115 -296 -115q-170 0 -297 115q-123 123 -123 297zM133 410q0 -147 105 -254q106 -104 254 -105q147 0 251 105q106 106 107 254q0 147 -107 252q-104 106 -251 106t-254 -106 q-105 -105 -105 -252zM236 410q0 106 73 180q76 76 183 76q106 0 180 -76q76 -74 76 -180t-76 -183q-74 -74 -180 -73q-106 0 -183 73q-73 77 -73 183z" />
<glyph unicode="&#xe50;" horiz-adv-x="772" d="M47 307q0 129 98 225q94 94 240 95q145 0 240 -95q100 -92 100 -225t-100 -225q-102 -86 -240 -86q-137 0 -240 84q-98 92 -98 227zM166 307q0 -43 17.5 -81t46 -65.5t68.5 -43t85 -15.5t86 15.5t69.5 43t46 65.5t17.5 81t-17.5 80t-46 64.5t-69.5 44t-86 16.5 q-92 0 -154.5 -58.5t-62.5 -146.5z" />
<glyph unicode="&#xe51;" horiz-adv-x="819" d="M47 328q0 131 105 215q109 84 249 84q158 0 265 -88q109 -86 108 -228q0 -156 -135 -268q-123 -98 -289 -119l-57 96q150 16 254 97q106 80 106 194q0 94 -71.5 150.5t-178.5 56.5q-98 0 -167 -55q-70 -51 -70 -135q0 -59 35 -104.5t86 -45.5q-18 14 -31.5 42t-13.5 56 q0 61 46 105.5t111 44.5q66 0 113 -43t47 -107q0 -43 -19.5 -80.5t-54 -65.5t-81 -43t-101.5 -15q-57 0 -104 19.5t-81 53t-52.5 81t-18.5 102.5zM332 276q0 -25 19.5 -43t47.5 -18q29 0 48.5 18.5t19.5 42.5q0 61 -68 62q-29 0 -48 -17.5t-19 -44.5z" />
<glyph unicode="&#xe52;" horiz-adv-x="1146" d="M-135 803l94 74q70 -72 132.5 -167.5t93 -187.5t50 -194.5t31.5 -214.5h686v319q0 39 -27.5 64.5t-64.5 25.5q-63 0 -96 -55v-291h-119v295q-45 51 -110 51q-47 0 -82 -26.5t-39 -63.5l24 2q57 0 99.5 -40t42.5 -95t-41 -94t-101 -39q-59 0 -101 38t-42 95v117 q0 47 19.5 87t51 69.5t75.5 46t94 16.5q49 0 92 -16.5t78 -43.5q66 59 155 60q88 0 149.5 -52.5t61.5 -140.5v-442h-913q0 70 -6.5 129t-16.5 115.5t-26.5 114t-36.5 122.5q-31 92 -80 171t-127 151zM383 299q0 -51 55 -51q20 0 37 14t17 37q0 20 -15.5 35.5t-38.5 15.5 q-55 0 -55 -51z" />
<glyph unicode="&#xe53;" horiz-adv-x="968" d="M76 137v281q0 90 75.5 153.5t174.5 63.5q59 0 102 -15.5t78 -44.5q31 25 76 42.5t90 17.5q43 0 83 -14.5t70.5 -39t49 -59.5t18.5 -78v-444h-119v434q0 41 -31.5 64.5t-70.5 23.5q-31 0 -59.5 -13t-47.5 -40v-469h-119v473q-43 49 -120 49q-49 0 -90 -29.5t-41 -74.5 v-137l41 6q66 0 111.5 -44t45.5 -106q0 -63 -46 -101t-111 -38q-66 0 -113 39t-47 100zM168 137q0 -61 68 -61q29 0 48 17.5t19 43.5q0 25 -19.5 43.5t-47.5 18.5q-29 0 -48.5 -18.5t-19.5 -43.5z" />
<glyph unicode="&#xe54;" horiz-adv-x="878" d="M47 289q0 139 103 231q100 94 247 94h275q51 0 69 76q12 51 13 154h118q0 -147 -43 -236q-51 -106 -157 -106h-275q-49 0 -91 -15.5t-72.5 -44t-49 -67.5t-18.5 -86q0 -45 17.5 -81t47 -60.5t68.5 -38t82 -13.5q33 0 69.5 7.5t53.5 9.5q-31 27 -50.5 66.5t-19.5 76.5 q0 68 47 113t113 45q68 0 114 -44t46 -108q0 -80 -72 -127l29 -2q53 -8 90 -21.5t73 -48.5l-71 -79q-31 16 -79 27.5t-87 11.5q-12 0 -48 -6.5t-95 -16.5q-33 0 -63 -2t-56 -2q-137 0 -228 65q-100 83 -100 228zM526 262q0 -25 19.5 -43t48.5 -18t48.5 18.5t19.5 42.5 q0 61 -68 62q-29 0 -48.5 -17.5t-19.5 -44.5z" />
<glyph unicode="&#xe55;" horiz-adv-x="878" d="M47 289q0 117 68.5 199.5t181.5 111.5q-14 20 -18.5 36.5t-4.5 35.5q0 63 49.5 108t118.5 45q68 0 117 -43t49 -110q0 -29 -16 -58h80q51 0 69 76q12 49 13 154h118q0 -147 -43 -236q-51 -106 -157 -106h-275q-49 0 -91 -15.5t-72.5 -44t-49 -67.5t-18.5 -86 q0 -45 17.5 -81t47 -60.5t68.5 -38t82 -13.5q33 0 69.5 7.5t53.5 9.5q-31 27 -50.5 66.5t-19.5 76.5q0 68 47 113t113 45q68 0 114 -44t46 -108q0 -80 -72 -127l29 -2q53 -8 90 -21.5t73 -48.5l-71 -79q-31 16 -79 27.5t-87 11.5q-12 0 -48 -6.5t-95 -16.5q-33 0 -63 -2 t-56 -2q-137 0 -228 65q-100 83 -100 228zM375 672q0 -63 67 -64q66 0 66 64q0 23 -18.5 43t-47.5 20t-48 -19t-19 -44zM526 262q0 -25 19.5 -43t48.5 -18t48.5 18.5t19.5 42.5q0 61 -68 62q-29 0 -48.5 -17.5t-19.5 -44.5z" />
<glyph unicode="&#xe56;" horiz-adv-x="827" d="M-82 774l82 70q41 -33 72.5 -68t56.5 -69q43 -63 64 -134q98 61 231 62q152 0 254 -90t102 -230q0 -145 -106 -237q-109 -84 -266 -84q-145 0 -240 67q-94 76 -94 177q0 66 47 108.5t115 42.5q66 0 111.5 -44t45.5 -105q0 -82 -74 -127q27 -14 89 -15q51 0 98 15.5t81 44 t54.5 68.5t20.5 89q0 45 -18.5 83t-51.5 64.5t-76 42t-92 15.5q-61 0 -119.5 -22.5t-116.5 -75.5l-94 24q-33 189 -176 328zM168 240q0 -25 19.5 -44.5t48.5 -19.5t48 18.5t19 45.5q0 63 -67 63q-68 0 -68 -63z" />
<glyph unicode="&#xe57;" horiz-adv-x="1193" d="M76 139v277q0 92 75.5 155.5t174.5 63.5q59 0 102 -15.5t78 -44.5q31 25 76 42.5t90 17.5q43 0 83 -14.5t70.5 -39t49 -60.5t18.5 -79v-336q35 0 70.5 25t35.5 72v413q0 76 41 142q14 20 35 41.5t47 44.5l97 -70q-43 -27 -72 -71t-29 -95v-399q0 -104 -92 -156.5 t-252 -52.5v432q0 41 -30.5 65.5t-71.5 24.5q-70 0 -107 -55v-467h-119v471q-45 51 -120 51q-49 0 -90 -30.5t-41 -75.5v-131l41 4q66 0 111.5 -44t45.5 -106q0 -63 -45 -102t-112 -39q-66 0 -113 39t-47 102zM168 139q0 -61 68 -61q29 0 48 17.5t19 43.5q0 25 -19.5 43.5 t-47.5 18.5q-29 0 -48.5 -18.5t-19.5 -43.5z" />
<glyph unicode="&#xe58;" horiz-adv-x="905" d="M47 291q0 156 119 244q119 92 297 92q68 0 122 -6.5t97 -16.5q23 39 43 103.5t27 136.5l114 -19q-14 -106 -48 -192t-87 -158q-55 20 -117.5 31.5t-130.5 11.5q-141 0 -229 -67q-88 -63 -88 -160q0 -31 11 -59.5t27.5 -52t38 -41t40.5 -23.5l133 129l182 -152l51 31 q-90 29 -90 117q0 57 43 98t103 41q57 0 100 -43t43 -100q0 -70 -76 -138q-59 -53 -192 -110l-162 123l-123 -123q-106 18 -170 94q-78 90 -78 209zM643 240q0 -16 13.5 -35t48.5 -19q25 0 42 15.5t17 38.5t-18.5 41t-40.5 18q-25 0 -43.5 -16t-18.5 -43z" />
<glyph unicode="&#xe59;" horiz-adv-x="966" d="M47 317q0 143 94 232q96 90 236 90q133 0 227 -88q27 41 66 64.5t90 23.5t90 -27q20 49 20 146q0 39 -6 86h121q0 -16 2 -36t2 -30q0 -104 -30.5 -190t-77.5 -135l-62 18q-2 27 -22.5 40t-36.5 13q-29 0 -46.5 -21.5t-21.5 -51.5q53 -86 88 -200t51 -245l-120 -8 q-14 111 -36 198t-54 152q-86 176 -244 176q-92 0 -151.5 -58t-59.5 -151q0 -63 26.5 -116.5t63.5 -77.5q-8 14 -8 49q0 63 46 107.5t112 44.5q68 0 113.5 -44.5t45.5 -107.5q0 -41 -17.5 -74t-48 -55.5t-69.5 -33.5t-82 -11q-143 0 -223 88q-78 96 -78 233zM340 170 q0 -25 19.5 -44.5t46.5 -19.5q29 0 47 18.5t18 45.5q0 63 -65 63q-66 0 -66 -63z" />
<glyph unicode="&#xe5a;" horiz-adv-x="1011" d="M33 635q0 86 69.5 140t176.5 54q35 0 65.5 -6t63.5 -16v-113q-74 25 -127 25t-92 -21.5t-39 -62.5q0 -43 49 -68.5t114 -25.5q111 0 187 51q45 31 86 80v147h119v-819h-119v518q-27 -20 -53.5 -33.5t-53.5 -23.5q-66 -27 -166 -27q-131 0 -205.5 57.5t-74.5 143.5zM807 0 v819h119v-819h-119z" />
<glyph unicode="&#xe5b;" horiz-adv-x="1392" d="M61 414q0 150 70 243q70 98 180 99q43 0 82 -18.5t69 -52.5t46 -79t16 -100q0 -86 -39 -138.5t-98 -52.5q-49 0 -86 39t-37 95q0 53 37 94t84 41l21 -2q-35 80 -93 80q-63 0 -107 -72t-44 -184q0 -111 51 -174.5t131 -63.5q94 0 164 94t92 254q8 51 19.5 66.5t37.5 15.5 q20 0 48 -43t51 -106l12 73q14 57 41 58q18 0 45 -33t47 -86q14 82 45 82q23 0 46.5 -30t47.5 -77q12 39 23.5 58.5t32.5 19.5q14 0 30.5 -18.5t30.5 -44.5q14 33 47 28l111 -14q18 0 35.5 -10.5t17.5 -20.5q0 -12 -17.5 -23.5t-37.5 -13.5l-103 -10q-6 -20 -19 -38.5 t-30 -18.5q-14 0 -31 22q-4 4 -11 16.5t-17 30.5q-10 -37 -26.5 -64.5t-33.5 -27.5q-14 0 -31.5 29t-39.5 76q-8 -29 -16 -51l-11 -33q-18 -41 -39 -41q-20 0 -47 63q-8 16 -14 34.5t-15 35.5q-6 -29 -16 -56.5t-21.5 -50t-23.5 -37t-23 -14.5q-35 0 -45 35q-4 18 -6 31.5 t-4 23.5q-4 20 -18 62q-16 -68 -45 -127.5t-66 -98.5q-100 -113 -227 -112q-61 0 -111.5 24.5t-86.5 68.5t-55.5 106.5t-19.5 138.5zM336 449q0 -27 14.5 -43.5t34.5 -16.5q49 0 49 60q0 61 -49 61q-18 0 -33.5 -17t-15.5 -44z" />
<glyph unicode="&#x2000;" horiz-adv-x="798" />
<glyph unicode="&#x2001;" horiz-adv-x="1599" />
<glyph unicode="&#x2002;" horiz-adv-x="798" />
<glyph unicode="&#x2003;" horiz-adv-x="1599" />
<glyph unicode="&#x2004;" horiz-adv-x="532" />
<glyph unicode="&#x2005;" horiz-adv-x="399" />
<glyph unicode="&#x2006;" horiz-adv-x="266" />
<glyph unicode="&#x2007;" horiz-adv-x="266" />
<glyph unicode="&#x2008;" horiz-adv-x="198" />
<glyph unicode="&#x2009;" horiz-adv-x="319" />
<glyph unicode="&#x200a;" horiz-adv-x="88" />
<glyph unicode="&#x2010;" horiz-adv-x="526" d="M68 322v108h391v-108h-391z" />
<glyph unicode="&#x2011;" horiz-adv-x="526" d="M68 322v108h391v-108h-391z" />
<glyph unicode="&#x2012;" horiz-adv-x="526" d="M68 322v108h391v-108h-391z" />
<glyph unicode="&#x2013;" horiz-adv-x="811" d="M66 297v90h679v-90h-679z" />
<glyph unicode="&#x2014;" horiz-adv-x="1622" d="M66 297v90h1490v-90h-1490z" />
<glyph unicode="&#x2018;" horiz-adv-x="374" d="M113 616v150q0 86 36.5 142.5t112.5 56.5v-68q-41 0 -59.5 -38t-18.5 -93h80v-150h-151z" />
<glyph unicode="&#x2019;" horiz-adv-x="374" d="M113 616v68q43 0 61.5 37t18.5 94h-80v150h149v-150q0 -86 -36.5 -142.5t-112.5 -56.5z" />
<glyph unicode="&#x201c;" horiz-adv-x="575" d="M90 616v150q0 88 36 143.5t112 55.5v-68q-41 0 -59.5 -38t-18.5 -93h80v-150h-150zM336 616v150q0 86 37 142.5t112 56.5v-68q-41 0 -59 -38t-18 -93h79v-150h-151z" />
<glyph unicode="&#x201d;" horiz-adv-x="575" d="M90 616v68q41 0 59.5 38t18.5 93h-78v150h150v-150q0 -86 -37 -142.5t-113 -56.5zM336 815v150h151v-150q0 -86 -36.5 -142.5t-112.5 -56.5v68q41 0 59.5 38t18.5 93h-80z" />
<glyph unicode="&#x2022;" horiz-adv-x="757" d="M72 410q0 127 90 217t217 90t217 -90t90 -217t-90 -217.5t-217 -90.5t-217 90.5t-90 217.5z" />
<glyph unicode="&#x2026;" horiz-adv-x="1351" d="M150 0v150h151v-150h-151zM600 0v150h150v-150h-150zM1051 0v150h149v-150h-149z" />
<glyph unicode="&#x202f;" horiz-adv-x="319" />
<glyph unicode="&#x205f;" horiz-adv-x="399" />
<glyph unicode="&#xe000;" horiz-adv-x="700" d="M0 700h700v-700h-700v700z" />
<glyph unicode="&#xf700;" horiz-adv-x="804" d="M2 672q160 162 367 162q100 0 178 -37l78 94l112 -53l-100 -109q117 -117 117 -307t-133 -307q-133 -115 -357 -115l-100 412h-80v106h182l92 -409q119 0 197 90q80 92 80 223q0 63 -19.5 117.5t-55.5 94.5t-85 61.5t-110 21.5q-143 0 -269 -119z" />
<glyph unicode="&#xf701;" d="M-872 922v98h593v-98h-593z" />
<glyph unicode="&#xf702;" d="M-872 922v98h475v106h118v-204h-593z" />
<glyph unicode="&#xf703;" d="M-872 922v98h419v8q0 45 33 76t80 31q49 0 82 -31t33 -76t-33 -75.5t-82 -30.5h-532zM-389 1028q0 -18 14.5 -32.5t34.5 -14.5q18 0 34.5 14.5t16.5 32.5t-15 32.5t-36 14.5q-16 0 -32.5 -14.5t-16.5 -32.5z" />
<glyph unicode="&#xf704;" d="M-872 922v98h325v106h88v-106h62v106h118v-204h-593z" />
<glyph unicode="&#xf705;" d="M-418 922v225h119v-225h-119z" />
<glyph unicode="&#xf706;" d="M-465 1044v82h82q96 0 96 -77v-25h297v-102h-416v79q0 43 -40 43h-19z" />
<glyph unicode="&#xf707;" d="M-774 922v106q0 61 38 95t95 34h45l80 -57l78 57h41q57 0 93 -28.5t36 -88.5v-28h276v-90h-387v114q0 43 -33 43l-104 -75l-107 75q-43 0 -43 -45v-28h70v-84h-178z" />
<glyph unicode="&#xf708;" d="M-582 1008v94h103v86h119v-86h102v-94h-102v-86h-119v86h-103z" />
<glyph unicode="&#xf709;" d="M-385 1051v57q0 59 38 89t101 30h103v-103h-60q-63 0 -63 -51v-22h-119z" />
<glyph unicode="&#xf70a;" d="M-197 922v225h119v-225h-119z" />
<glyph unicode="&#xf70b;" d="M-383 1044v82h82q96 0 96 -77v-25h244v-102h-363v79q0 43 -41 43h-18z" />
<glyph unicode="&#xf70c;" d="M-670 922v106q0 61 38 95t95 34h45l84 -57l82 57h41q57 0 93 -28.5t36 -88.5v-28h136v-90h-246v114q0 43 -33 43l-109 -75l-110 75q-43 0 -43 -45v-28h69v-84h-178z" />
<glyph unicode="&#xf70d;" d="M-401 1008v94h102v86h119v-86h102v-94h-102v-86h-119v86h-102z" />
<glyph unicode="&#xf70e;" d="M-279 922v57q0 59 38 89t102 30h102v-103h-59q-63 0 -64 -51v-22h-119z" />
<glyph unicode="&#xf70f;" horiz-adv-x="1368" d="M86 0v657q121 176 334 177q70 0 131 -18.5t106 -54.5t71 -87t26 -117v-293q0 -78 58 -124t146 -46t146.5 46t58.5 124v555h119v-561q0 -66 -24.5 -115t-68.5 -82.5t-103.5 -50t-127.5 -16.5q-137 0 -225 63q-98 76 -98 201v287q0 86 -60.5 133t-154.5 47 q-145 0 -215 -100v-514h127v-111h-246z" />
<glyph unicode="&#xf710;" d="M-573 922v184h118v-86h478v-98h-596z" />
<glyph unicode="&#xf711;" d="M-477 1028q0 45 32.5 76t84.5 31q47 0 81.5 -31t34.5 -76t-32.5 -75.5t-83.5 -30.5q-47 0 -82 30.5t-35 75.5zM-412 1028q0 -18 15.5 -32.5t36.5 -14.5q18 0 34.5 14.5t16.5 32.5t-15.5 32.5t-35.5 14.5q-18 0 -35 -14.5t-17 -32.5z" />
<glyph unicode="&#xf712;" d="M-791 922v79q0 88 56.5 138.5t167.5 50.5h372v-82h-366q-51 0 -81 -23.5t-30 -54.5l84 -6l109 57l104 -57h117v-102h-123l-98 59l-101 -59h-211z" />
<glyph unicode="&#xf713;" d="M-397 1188v164h118v-164h-118z" />
<glyph unicode="&#xf714;" d="M-539 1298v74h74q86 0 86 -69v-23h227v-92h-333v72q0 39 -37 38h-17z" />
<glyph unicode="&#xf715;" d="M-571 1188v90q0 51 31.5 81t80.5 30h39l66 -46l65 46h33q49 0 80 -24t31 -75v-18h108v-84h-209v98q0 29 -20 29l-88 -60l-92 60q-27 0 -27 -31v-18h55v-78h-153z" />
<glyph unicode="&#xf716;" d="M-475 1264v75h88v76h98v-76h88v-75h-88v-76h-98v76h-88z" />
<glyph unicode="&#xf717;" d="M-449 1102v51q0 55 35 81t92 26h93v-93h-56q-55 0 -55 -47v-18h-109z" />
<glyph unicode="&#xf718;" d="M-279 -360h201v-236h-119v133h-82v103z" />
<glyph unicode="&#xf719;" d="M-475 -360h174v-144q8 -4 14 -6q18 -6 35 -6q55 0 55 39v117h119v-123q0 -55 -51 -89t-123 -34q-51 0 -92 15.5t-72 51.5v76h-59v103z" />
<glyph unicode="&#xf71a;" d="M-242 -442q0 35 23.5 58.5t58.5 23.5t58.5 -24t23.5 -58q0 -35 -23.5 -58.5t-58.5 -23.5t-58.5 23.5t-23.5 58.5z" />
<glyph unicode="&#xf71b;" d="M-473 0h473v1208h-473v-1208z" />
<glyph unicode="&#xf71c;" horiz-adv-x="512" />
<glyph unicode="&#xf71d;" horiz-adv-x="512" d="M41 0v-186h35v71q35 23 74 23h200q53 0 86 -27v-67h35v186h-430z" />
</font>
</defs>
</svg>
